<svg fill="#000000" xmlns="http://www.w3.org/2000/svg" xmlns:xlink="http://www.w3.org/1999/xlink" version="1.1" x="0px" y="0px" viewBox="0 0 64 64" enable-background="new 0 0 64 64" xml:space="preserve"><g><path fill="#000000" d="M23.857,28.996l8.842,7.181L12.045,60.364c-2.05,2.377-5.653,2.639-8.03,0.589   c-2.377-2.05-2.642-5.653-0.591-8.03L23.857,28.996z"/><path fill="#000000" d="M51.195,18.138l-1.116,1.293l-6.696,7.758l-1.116,1.295c-0.618,0.714-1.697,0.792-2.411,0.177l-0.424-0.365   l-4.157,4.866l-8.832-7.194l4.368-5.114l-1.3-1.123c-0.714-0.616-0.792-1.695-0.177-2.409c1.231-1.427,1.072-3.588-0.353-4.82   c-1.427-1.231-3.588-1.072-4.82,0.353c-0.616,0.716-1.695,0.795-2.409,0.179L19.165,10.8c-0.714-0.616-0.792-1.695-0.177-2.409   l2.232-2.585c4.309-4.991,11.873-5.548,16.867-1.239l8.189,7.069l4.741,4.091C51.732,16.345,51.813,17.422,51.195,18.138z"/><path fill="#000000" d="M61.54,27.066l-8.93,10.345c-0.616,0.716-1.695,0.795-2.409,0.177l-5.173-4.464   c-0.714-0.616-0.792-1.695-0.177-2.409l1.116-1.293l6.698-7.76l1.116-1.293c0.616-0.714,1.695-0.795,2.409-0.177l5.173,4.464   C62.077,25.273,62.158,26.352,61.54,27.066z"/></g></svg>